<svg xmlns="http://www.w3.org/2000/svg" width="454.587" height="89" viewBox="0 0 454.587 89"><g transform="translate(-130 -9)"><text transform="translate(130 70)" font-size="56" font-family="SegoeScript-Bold, Segoe Script" font-weight="700"><tspan x="0" y="0">Scrumptious</tspan></text><text transform="translate(130 70)" font-size="56" font-family="SegoeScript-Bold, Segoe Script" font-weight="700"><tspan x="0" y="0">Scrumptious</tspan></text><g transform="translate(-32 -31.516)"><path d="M2812.133,37.233s6.765-5.165,22.924-5.165,41.713,5.165,41.713,5.165-15.137,8.9-33.249,8.9A61.554,61.554,0,0,1,2812.133,37.233Z" transform="translate(-2262 31.809)" fill="none" stroke="#f79e02" stroke-width="1"/><path d="M2880.97,87.539l22.227-52.8s-.452-4.062-2.369-2.708S2880.97,87.539,2880.97,87.539Z" transform="translate(-2289.462 23.357)" fill="#1b9ce5" stroke="#1b9ce5" stroke-width="1"/><path d="M0,55.786l22.227-52.8S21.774-1.078,19.857.276,0,55.786,0,55.786Z" transform="translate(582.752 54.873) rotate(-11)" fill="#1b9ce5" stroke="#1b9ce5" stroke-width="1"/><path d="M2812.133,38.141s9.454,40.79,18.376,44.933,19.971,1.593,25.175,0,21.086-44.933,21.086-44.933-15.137,7.728-33.249,7.728A68.191,68.191,0,0,1,2812.133,38.141Z" transform="translate(-2262 32.078)" fill="none" stroke="#f79e02" stroke-width="2"/></g></g></svg>